<svg width="96" height="40" viewBox="0 0 96 40" fill="none" xmlns="http://www.w3.org/2000/svg">
<path d="M6.98904 0C11.5821 0 13.9781 2.75516 13.9781 7.25751C13.9781 11.7211 11.5429 14.515 6.98904 14.515C2.43522 14.515 0 11.7211 0 7.25751C0 2.75516 2.39595 0 6.98904 0ZM6.98904 11.7405C9.24631 11.7405 10.1449 9.56961 10.1449 7.25751C10.1449 4.82435 9.24631 2.77453 6.98904 2.77453C4.73337 2.77453 3.83479 4.82435 3.83479 7.25751C3.83479 9.56961 4.73257 11.7405 6.98904 11.7405Z" fill="url(#paint0_linear)"/>
<path d="M31.0887 10.0916C31.2883 11.5394 32.3881 12.1027 34.1436 12.1027C35.1231 12.1027 36.2405 11.8808 37.3187 11.2989V13.8523C36.1604 14.3148 34.8418 14.5149 33.5055 14.5149C30.0707 14.5149 27.4551 12.4836 27.4551 9.02638C27.4551 5.56831 29.7918 3.55884 33.0262 3.55884C36.881 3.55884 38.279 6.31238 38.279 9.42828V10.0916H31.0887ZM35.0422 8.04182C35.0422 6.83452 34.4851 5.85077 33.0462 5.85077C31.7476 5.85077 31.1288 6.83533 31.0479 8.04182H35.0422Z" fill="url(#paint1_linear)"/>
<path d="M47.3209 6.69491C46.9217 6.57547 46.5225 6.57547 46.1033 6.57547C44.4248 6.57547 43.4861 7.80133 43.4861 9.85115V14.2736H39.8918V3.80014H43.1663V5.73052H43.2064C43.8252 4.40379 44.7246 3.55884 46.282 3.55884C46.7005 3.55884 47.1397 3.61936 47.4997 3.67828L47.3209 6.69491Z" fill="url(#paint2_linear)"/>
<path d="M55.3079 14.2736C55.2871 13.7111 55.2269 13.168 55.2269 12.6257H55.1877C54.3692 13.9322 53.3697 14.5149 51.8931 14.5149C49.8363 14.5149 47.999 13.49 47.999 11.2182C47.999 8.02165 51.4531 7.63993 53.3697 7.63993C53.95 7.63993 54.5889 7.70126 55.0474 7.78035C55.0273 6.35354 53.9684 5.97101 52.6699 5.97101C51.5132 5.97101 50.3549 6.19294 49.3569 6.75624L49.296 4.3021C50.5745 3.77996 51.9116 3.55884 53.449 3.55884C56.1055 3.55884 58.402 4.704 58.402 7.90059V11.8017C58.402 12.6257 58.4413 13.4496 58.6008 14.2728H55.3079V14.2736ZM52.831 12.1027C54.1881 12.1027 55.0474 10.8567 55.0474 9.63003C54.5889 9.60986 54.0694 9.5695 53.53 9.5695C52.3124 9.5695 51.3529 9.95122 51.3529 10.9576C51.3521 11.6799 51.9917 12.1027 52.831 12.1027Z" fill="url(#paint3_linear)"/>
<path d="M80.5066 14.1253H77.9704V12.7186H77.9303C77.1111 13.7234 75.9528 14.3666 74.5564 14.3666C72.1188 14.3666 71.0615 12.6363 71.0615 10.3049V3.77124H73.7356V9.30092C73.7356 10.5663 73.7557 12.2764 75.4743 12.2764C77.4117 12.2764 77.8309 10.1644 77.8309 8.8377V3.77124H80.5066V14.1253Z" fill="url(#paint4_linear)"/>
<path d="M66.1462 10.835H59.6558V9.18709L65.2885 0H68.143V9.18709H69.9009V10.835H68.143V14.0316H66.1462V10.835ZM66.1462 1.64874H66.1061L61.7535 9.18709H66.1462V1.64874Z" fill="#1A1A1A"/>
<path d="M81.6377 7.01147H82.2749V7.67565H81.6377V7.01147Z" fill="#1A1A1A"/>
<path d="M85.8869 4.18046C85.6208 4.06102 85.2993 3.97386 85.0308 3.97386C84.0641 3.97386 83.523 4.67758 83.523 5.65891C83.523 6.57649 84.0729 7.34316 84.9755 7.34316C85.2913 7.34316 85.5807 7.27134 85.8789 7.16077L85.9262 7.62884C85.5887 7.74748 85.2745 7.77007 84.8969 7.77007C83.6096 7.77007 82.9803 6.78228 82.9803 5.65891C82.9803 4.41772 83.7739 3.54614 84.9611 3.54614C85.4396 3.54614 85.7843 3.65751 85.9262 3.70513L85.8869 4.18046Z" fill="#1A1A1A"/>
<path d="M87.9382 3.54614C89.2351 3.54614 89.8091 4.55976 89.8091 5.65891C89.8091 6.75888 89.2351 7.77007 87.9382 7.77007C86.6428 7.77007 86.0688 6.75888 86.0688 5.65891C86.0688 4.56056 86.6428 3.54614 87.9382 3.54614ZM87.9382 7.34397C88.8031 7.34397 89.2672 6.59263 89.2672 5.65972C89.2672 4.726 88.8031 3.97467 87.9382 3.97467C87.0748 3.97467 86.6107 4.726 86.6107 5.65972C86.6107 6.59263 87.074 7.34397 87.9382 7.34397Z" fill="#1A1A1A"/>
<path d="M95.1893 7.67556V4.99384C95.1893 4.42408 94.9777 3.97296 94.3404 3.97296C93.7986 3.97296 93.2647 4.43942 93.2647 5.44496V7.67475H92.7701V4.99303C92.7701 4.42328 92.5577 3.97215 91.9212 3.97215C91.3794 3.97215 90.8447 4.43861 90.8447 5.44415V7.67394H90.3493V4.58952C90.3493 4.28124 90.3493 3.96328 90.3173 3.63966H90.7966V4.32078L90.8126 4.32805C90.9698 4.05205 91.2054 3.54443 92.0623 3.54443C92.4158 3.54443 92.9962 3.69696 93.122 4.40068H93.1388C93.3184 3.92454 93.7905 3.54443 94.419 3.54443C95.2278 3.54443 95.6839 4.115 95.6839 4.897V7.67394H95.1893V7.67556Z" fill="#1A1A1A"/>
<path d="M15.2799 39.7392V10.2394V10.2903C15.2454 10.3234 15.2302 10.3581 15.2302 10.392C15.2302 10.5953 15.3135 10.9593 15.4795 11.4847C15.6438 12.0092 15.744 12.2715 15.7776 12.2715V39.74H15.2799V39.7392ZM21.388 4.14404C21.6196 4.14404 21.7679 4.14404 21.8352 4.14404C23.2909 4.14404 24.426 4.56853 25.2356 5.41429C26.0468 6.26085 26.4524 7.29464 26.4524 8.51243C26.4524 9.9005 25.9554 11.1611 24.963 12.2941C23.9699 13.4296 22.5959 14.1156 20.8421 14.352C20.6761 14.352 20.4934 14.3698 20.2946 14.4028C20.0637 14.4028 19.9146 14.4028 19.8481 14.4028C18.3916 14.4028 17.267 13.98 16.471 13.1342C15.6783 12.2885 15.2799 11.2555 15.2799 10.0369C15.2799 8.64881 15.7672 7.38745 16.7444 6.25278C17.7207 5.11973 19.0866 4.43376 20.8421 4.1965C21.0072 4.19569 21.1892 4.17955 21.388 4.14404Z" fill="#1A1A1A"/>
<defs>
<linearGradient id="paint0_linear" x1="6.98904" y1="0" x2="6.98904" y2="14.515" gradientUnits="userSpaceOnUse">
<stop stop-color="#A6291E"/>
<stop offset="1" stop-color="#640800"/>
</linearGradient>
<linearGradient id="paint1_linear" x1="32.8671" y1="3.55884" x2="32.8671" y2="14.5149" gradientUnits="userSpaceOnUse">
<stop stop-color="#A6291E"/>
<stop offset="1" stop-color="#640800"/>
</linearGradient>
<linearGradient id="paint2_linear" x1="43.6957" y1="3.55884" x2="43.6957" y2="14.2736" gradientUnits="userSpaceOnUse">
<stop stop-color="#A6291E"/>
<stop offset="1" stop-color="#640800"/>
</linearGradient>
<linearGradient id="paint3_linear" x1="53.2999" y1="3.55884" x2="53.2999" y2="14.5149" gradientUnits="userSpaceOnUse">
<stop stop-color="#A6291E"/>
<stop offset="1" stop-color="#640800"/>
</linearGradient>
<linearGradient id="paint4_linear" x1="75.7841" y1="3.77124" x2="75.7841" y2="14.3666" gradientUnits="userSpaceOnUse">
<stop stop-color="#A6291E"/>
<stop offset="1" stop-color="#640800"/>
</linearGradient>
</defs>
</svg>
