<?xml version="1.0" encoding="UTF-8"?>
<svg width="564px" height="46px" viewBox="0 0 564 46" xmlns="http://www.w3.org/2000/svg" xmlns:xlink="http://www.w3.org/1999/xlink" version="1.1">
 <!-- Generated by Pixelmator Pro 2.1.2 -->
 <path id="Path" d="M564 26 L0 26 0 27 564 27 Z" fill="#e6e6e6" fill-opacity="1" stroke="none"/>
 <path id="Path-1" d="M564 19 L0 19 0 20 564 20 Z" fill="#e6e6e6" fill-opacity="1" stroke="none"/>
 <path id="Path-2" d="M564 13 L0 13 0 14 564 14 Z" fill="#e6e6e6" fill-opacity="1" stroke="none"/>
 <path id="Path-3" d="M564 6 L0 6 0 7 564 7 Z" fill="#e6e6e6" fill-opacity="1" stroke="none"/>
 <path id="Path-4" d="M564 0 L0 0 0 1 564 1 Z" fill="#e6e6e6" fill-opacity="1" stroke="none"/>
 <path id="Path-5" d="M564 0 L563 0 563 27 564 27 Z" fill="#e6e6e6" fill-opacity="1" stroke="none"/>
 <path id="Path-6" d="M562 0 L561 0 561 27 562 27 Z" fill="#e6e6e6" fill-opacity="1" stroke="none"/>
 <path id="Path-7" d="M559 12 C559.552 12 560 11.105 560 10 560 8.895 559.552 8 559 8 558.448 8 558 8.895 558 10 558 11.105 558.448 12 559 12 Z" fill="#e6e6e6" fill-opacity="1" stroke="none"/>
 <path id="Path-8" d="M559 18 C559.552 18 560 17.328 560 16.5 560 15.672 559.552 15 559 15 558.448 15 558 15.672 558 16.5 558 17.328 558.448 18 559 18 Z" fill="#e6e6e6" fill-opacity="1" stroke="none"/>
 <path id="Path-9" d="M91.797 16.647 L85.306 16.647 85.306 14.999 90.939 5.812 93.794 5.812 93.794 14.999 95.552 14.999 95.552 16.647 93.794 16.647 93.794 19.844 91.797 19.844 Z M91.797 7.461 L91.757 7.461 87.404 14.999 91.797 14.999 Z" fill="#1a1a1a" fill-opacity="1" stroke="none"/>
 <path id="Path-10" d="M107.288 12.824 L107.926 12.824 107.926 13.488 107.288 13.488 Z" fill="#1a1a1a" fill-opacity="1" stroke="none"/>
 <path id="Path-11" d="M111.538 9.992 C111.272 9.873 110.95 9.786 110.682 9.786 109.715 9.786 109.174 10.49 109.174 11.471 109.174 12.389 109.724 13.155 110.626 13.155 110.942 13.155 111.231 13.083 111.53 12.973 L111.577 13.441 C111.239 13.56 110.925 13.582 110.548 13.582 109.26 13.582 108.631 12.594 108.631 11.471 108.631 10.23 109.425 9.358 110.612 9.358 111.09 9.358 111.435 9.47 111.577 9.517 Z" fill="#1a1a1a" fill-opacity="1" stroke="none"/>
 <path id="Path-12" d="M113.589 9.358 C114.886 9.358 115.46 10.372 115.46 11.471 115.46 12.571 114.886 13.582 113.589 13.582 112.294 13.582 111.72 12.571 111.72 11.471 111.72 10.373 112.294 9.358 113.589 9.358 Z M113.589 13.156 C114.454 13.156 114.918 12.405 114.918 11.472 114.918 10.538 114.454 9.787 113.589 9.787 112.726 9.787 112.261 10.538 112.261 11.472 112.261 12.405 112.725 13.156 113.589 13.156 Z" fill="#1a1a1a" fill-opacity="1" stroke="none"/>
 <path id="Path-13" d="M120.84 13.488 L120.84 10.806 C120.84 10.236 120.628 9.785 119.991 9.785 119.449 9.785 118.915 10.251 118.915 11.257 L118.915 13.487 118.421 13.487 118.421 10.805 C118.421 10.235 118.208 9.784 117.572 9.784 117.03 9.784 116.495 10.251 116.495 11.256 L116.495 13.486 116 13.486 116 10.402 C116 10.093 116 9.775 115.968 9.452 L116.447 9.452 116.447 10.133 116.463 10.14 C116.621 9.864 116.856 9.357 117.713 9.357 118.067 9.357 118.647 9.509 118.773 10.213 L118.79 10.213 C118.969 9.737 119.441 9.357 120.07 9.357 120.879 9.357 121.335 9.927 121.335 10.709 L121.335 13.486 120.84 13.486 Z" fill="#1a1a1a" fill-opacity="1" stroke="none"/>
 <path id="Path-14" d="M40.931 45.551 L40.931 16.052 40.931 16.102 C40.896 16.135 40.881 16.17 40.881 16.204 40.881 16.407 40.964 16.771 41.13 17.297 41.295 17.821 41.395 18.084 41.428 18.084 L41.428 45.552 40.931 45.552 Z M47.039 9.956 L47.486 9.956 C48.942 9.956 50.077 10.381 50.886 11.226 51.698 12.073 52.103 13.107 52.103 14.325 52.103 15.713 51.606 16.973 50.614 18.106 49.621 19.242 48.247 19.928 46.493 20.164 46.327 20.164 46.144 20.182 45.945 20.215 45.715 20.215 45.565 20.215 45.499 20.215 44.042 20.215 42.918 19.792 42.122 18.946 41.329 18.101 40.931 17.068 40.931 15.849 40.931 14.461 41.418 13.2 42.395 12.065 43.371 10.932 44.737 10.246 46.493 10.009 46.658 10.008 46.84 9.992 47.039 9.956 Z" fill="#1a1a1a" fill-opacity="1" stroke="none"/>
 <defs>
  <linearGradient id="linear-gradient" gradientUnits="userSpaceOnUse" x1="32.64" y1="5.812" x2="32.64" y2="20.327">
   <stop offset="0" stop-color="#a6291e" stop-opacity="1"/>
   <stop offset="1" stop-color="#640800" stop-opacity="1"/>
  </linearGradient>
 </defs>
 <path id="Path-15" d="M32.64 5.812 C37.233 5.812 39.629 8.567 39.629 13.07 39.629 17.533 37.194 20.327 32.64 20.327 28.086 20.327 25.651 17.533 25.651 13.07 25.651 8.567 28.047 5.812 32.64 5.812 Z M32.64 17.553 C34.897 17.553 35.796 15.382 35.796 13.07 35.796 10.637 34.897 8.587 32.64 8.587 30.384 8.587 29.486 10.636 29.486 13.07 29.486 15.382 30.383 17.553 32.64 17.553 Z" fill-opacity="1" fill="url(#linear-gradient)" stroke="none"/>
 <defs>
  <linearGradient id="linear-gradient-1" gradientUnits="userSpaceOnUse" x1="58.518" y1="9.371" x2="58.518" y2="20.327">
   <stop offset="0" stop-color="#a6291e" stop-opacity="1"/>
   <stop offset="1" stop-color="#640800" stop-opacity="1"/>
  </linearGradient>
 </defs>
 <path id="Path-16" d="M56.74 15.904 C56.939 17.352 58.039 17.915 59.794 17.915 60.774 17.915 61.891 17.693 62.97 17.111 L62.97 19.665 C61.811 20.127 60.493 20.327 59.156 20.327 55.722 20.327 53.106 18.296 53.106 14.839 53.106 11.381 55.443 9.371 58.677 9.371 62.532 9.371 63.93 12.125 63.93 15.24 L63.93 15.904 Z M60.693 13.854 C60.693 12.647 60.136 11.663 58.697 11.663 57.399 11.663 56.78 12.648 56.699 13.854 Z" fill-opacity="1" fill="url(#linear-gradient-1)" stroke="none"/>
 <defs>
  <linearGradient id="linear-gradient-2" gradientUnits="userSpaceOnUse" x1="69.347" y1="9.371" x2="69.347" y2="20.086">
   <stop offset="0" stop-color="#a6291e" stop-opacity="1"/>
   <stop offset="1" stop-color="#640800" stop-opacity="1"/>
  </linearGradient>
 </defs>
 <path id="Path-17" d="M72.972 12.507 C72.573 12.388 72.173 12.388 71.754 12.388 70.076 12.388 69.137 13.614 69.137 15.663 L69.137 20.086 65.543 20.086 65.543 9.612 68.817 9.612 68.817 11.543 68.857 11.543 C69.476 10.216 70.375 9.371 71.933 9.371 72.351 9.371 72.791 9.432 73.151 9.491 Z" fill-opacity="1" fill="url(#linear-gradient-2)" stroke="none"/>
 <defs>
  <linearGradient id="linear-gradient-3" gradientUnits="userSpaceOnUse" x1="78.951" y1="9.371" x2="78.951" y2="20.327">
   <stop offset="0" stop-color="#a6291e" stop-opacity="1"/>
   <stop offset="1" stop-color="#640800" stop-opacity="1"/>
  </linearGradient>
 </defs>
 <path id="Path-18" d="M80.959 20.086 C80.938 19.523 80.878 18.98 80.878 18.438 L80.838 18.438 C80.02 19.744 79.02 20.327 77.544 20.327 75.487 20.327 73.65 19.302 73.65 17.03 73.65 13.834 77.104 13.452 79.02 13.452 79.601 13.452 80.24 13.514 80.698 13.593 80.678 12.166 79.619 11.783 78.321 11.783 77.164 11.783 76.006 12.005 75.008 12.569 L74.947 10.114 C76.225 9.592 77.562 9.371 79.1 9.371 81.756 9.371 84.053 10.516 84.053 13.713 L84.053 17.614 C84.053 18.438 84.092 19.262 84.252 20.085 L80.959 20.085 Z M78.482 17.915 C79.839 17.915 80.698 16.669 80.698 15.442 80.24 15.422 79.72 15.382 79.181 15.382 77.963 15.382 77.004 15.764 77.004 16.77 77.003 17.492 77.643 17.915 78.482 17.915 Z" fill-opacity="1" fill="url(#linear-gradient-3)" stroke="none"/>
 <defs>
  <linearGradient id="linear-gradient-4" gradientUnits="userSpaceOnUse" x1="101.443" y1="9.583" x2="101.427" y2="20.179">
   <stop offset="0" stop-color="#a6291e" stop-opacity="1"/>
   <stop offset="1" stop-color="#640800" stop-opacity="1"/>
  </linearGradient>
 </defs>
 <path id="Path-19" d="M106.149 19.945 L103.613 19.941 103.615 18.534 103.575 18.534 C102.755 19.538 101.596 20.179 100.199 20.177 97.761 20.173 96.707 18.441 96.71 16.11 L96.721 9.576 99.395 9.58 99.386 15.11 C99.384 16.375 99.401 18.085 101.12 18.088 103.057 18.091 103.48 15.98 103.482 14.653 L103.49 9.587 106.165 9.591 Z" fill-opacity="1" fill="url(#linear-gradient-4)" stroke="none"/>
</svg>
